<?xml version="1.0" encoding="UTF-8"?>
<svg width="48px" height="48px" viewBox="7 5 55 60" version="1.1" xmlns="http://www.w3.org/2000/svg" xmlns:xlink="http://www.w3.org/1999/xlink">
    <g id="Icons-&amp;-Illustrations" stroke="none" stroke-width="1" fill="none" fill-rule="evenodd">
        <g id="ICON/APPLE">
            <circle id="CIRCLE" cx="24" cy="24" r="24"></circle>
            <path d="M35.3139051,29.0337367 C35.2331769,29.2616255 35.1549716,29.5063326 35.0649933,29.7468352 C34.3199399,31.7641978 33.188905,33.5553534 31.8165266,35.1968256 C31.5516374,35.5163745 31.2430204,35.8056503 30.9243125,36.0739032 C30.2944648,36.6070453 29.5695934,36.9291169 28.731198,36.958549 C28.1013503,36.9787311 27.4967302,36.8643662 26.913974,36.6272273 C26.4918331,36.4548391 26.0764195,36.2622688 25.6483922,36.106699 C24.2591954,35.6021481 22.877567,35.6685806 21.511075,36.2084501 C21.018297,36.4035431 20.5322463,36.6188181 20.0302182,36.7878427 C19.4483029,36.9829357 18.8445236,37.061982 18.2298125,36.9459353 C17.6933067,36.845866 17.2240744,36.5961133 16.7884788,36.2740417 C16.2477685,35.8737647 15.7936727,35.3860322 15.369009,34.8697084 C13.3583738,32.4175912 12.0087002,29.6450841 11.3569887,26.5395735 C11.076122,25.2041955 10.9415751,23.8578856 11.0239851,22.4930755 C11.1206907,20.8566488 11.5007857,19.2984275 12.3753405,17.8940943 C13.4727387,16.1290071 15.0208689,14.9727447 17.0575726,14.4959441 C18.2827903,14.2075092 19.4743713,14.3252378 20.6424066,14.775129 C21.2571177,15.010586 21.8735107,15.2435204 22.4907446,15.4747728 C23.0592053,15.688366 23.6251432,15.688366 24.1944447,15.4705683 C24.8242924,15.2300657 25.454981,14.990404 26.0873514,14.7557878 C26.7356993,14.5194899 27.3949791,14.3260787 28.0828501,14.271419 C29.1121339,14.1881681 30.1161902,14.3218741 31.093337,14.6489912 C32.4783292,15.1123371 33.6051595,15.9322323 34.4561686,17.126336 C34.4788734,17.1591318 34.5041009,17.1952913 34.5209193,17.2213598 C32.3748962,18.7173531 31.1530422,20.6935107 31.3304759,23.3693122 C31.5095915,26.0467955 32.9509252,27.8581331 35.3139051,29.0337367 Z M23.2761622,13.9400973 C23.9093735,13.9569156 24.5181982,13.8349825 25.1043182,13.6020482 C27.7775969,12.5408095 29.1752028,9.71280186 29.1331569,7.54996045 C29.1297932,7.3758904 29.1180204,7.20182035 29.1104521,7 C28.8354719,7.04120499 28.5848783,7.0605461 28.3443757,7.12109221 C26.3926047,7.59957462 24.890725,8.68856359 23.9034871,10.4519689 C23.3257763,11.4846163 23.0045456,12.5811736 23.102933,13.7794819 C23.1096604,13.9064605 23.1559109,13.9384154 23.2761622,13.9400973 Z" id="ICON" fill="#000000"></path>
        </g>
    </g>
</svg>