<svg xmlns="http://www.w3.org/2000/svg" width="30" height="25" viewBox="-10 -10 400 400"><path d="M237.7 78.9C232 79.3 228.7 79.8 224.7 80.6 193.8 86.8 174.1 108.7 169.9 141.5 169.1 147.8 169.1 147.9 169 174.4L168.9 200.1 143.6 200.1 118.3 200.1 118.3 228.8 118.3 257.6 143.6 257.6 168.9 257.6 168.9 327.2 168.9 396.8 170.1 397C186.8 399.9 216.1 399.8 230.6 396.9L231.1 396.8 231.1 327.2 231.1 257.6 254.3 257.6C267.1 257.6 277.6 257.5 277.6 257.5 277.6 257.5 279.5 244.6 281.9 228.8 284.4 213.1 286.3 200.2 286.3 200.2 286.3 200.1 273.9 200.1 258.7 200L231.2 200 231.2 179.7C231.2 164.1 231.2 158.9 231.4 157.5 233.2 144.2 240.2 135.9 252.3 132.9 257.1 131.7 257 131.7 273.6 131.6L288.8 131.6 288.8 107.1C288.8 93.7 288.7 82.7 288.6 82.6 288.2 82.4 276.8 80.9 270.1 80.2 258.6 79 243.7 78.4 237.7 78.9" fill="#fbfbfc"/><path d="M188.8 1.1C76.1 7.5-8.6 105.9 1.7 218.4 9.8 307.6 76.9 380.5 165.1 396.2 167.1 396.5 168.8 396.8 168.9 396.8 168.9 396.8 168.9 365.5 168.9 327.2L168.9 257.6 143.6 257.6 118.3 257.6 118.3 228.7 118.3 199.9 143.6 199.9 168.9 199.9 168.9 175.1C168.9 149.9 169 148.2 169.7 142.3 173.9 107.2 195.6 84.6 229.6 79.6 242.2 77.8 262 78.6 284.6 81.9 286.3 82.1 288 82.4 288.2 82.4L288.8 82.5 288.8 107 288.8 131.6 274.1 131.6C259.3 131.7 258.2 131.8 254.3 132.5 241 135.1 232.9 144.2 231.5 158.3 231.3 159.5 231.3 167.6 231.3 180L231.3 199.9 258.9 199.9 286.5 199.9 286.4 200.5C286.3 200.8 284.3 213.8 282 229.3L277.6 257.5 254.5 257.5 231.3 257.6 231.3 327.2 231.3 396.8 231.7 396.7C231.9 396.7 233.1 396.5 234.4 396.3 282.2 388.3 327.1 361.2 357.6 321.9 404.6 261.4 412.5 178.4 377.8 110 341.9 39.4 267.8-3.4 188.8 1.1" fill="#1c74f4"/><path d="M243.4 78.7C244 78.8 245 78.8 245.6 78.7 246.2 78.7 245.7 78.7 244.4 78.7 243.2 78.7 242.7 78.7 243.4 78.7M252.2 78.9C252.4 78.9 252.7 78.9 252.9 78.9 253 78.9 252.9 78.8 252.5 78.8 252.2 78.8 252 78.9 252.2 78.9M190.2 97.9L189.5 98.6 190.2 98C190.6 97.7 190.9 97.3 190.9 97.3 190.9 97.2 190.8 97.3 190.2 97.9M188.5 99.6L187.9 100.3 188.6 99.7C189 99.3 189.3 99 189.3 99 189.3 98.8 189.1 99 188.5 99.6M231.2 180.4L231.2 200 258.7 200 286.2 200 258.8 200 231.3 199.9 231.2 180.4 231.2 160.8 231.2 180.4M131 200C138 200.1 149.4 200.1 156.4 200 163.3 200 157.6 200 143.6 200 129.7 200 124 200 131 200M231.2 327.1C231.2 365.4 231.2 381 231.2 361.9 231.2 342.7 231.2 311.4 231.2 292.2 231.2 273.1 231.2 288.8 231.2 327.1" fill="#9bc4fc"/><path d="M240.8 78.7C241.1 78.8 241.6 78.8 241.9 78.7 242.1 78.7 241.9 78.6 241.3 78.6 240.8 78.6 240.5 78.7 240.8 78.7M247.1 78.7C247.4 78.8 248 78.8 248.4 78.7 248.8 78.7 248.5 78.6 247.8 78.6 247.1 78.6 246.7 78.7 247.1 78.7M253.3 78.9C253.5 78.9 253.8 78.9 254 78.9 254.2 78.9 254 78.8 253.7 78.8 253.3 78.8 253.2 78.9 253.3 78.9M261.8 131.7C262.2 131.8 262.7 131.8 263 131.7 263.4 131.7 263.1 131.7 262.4 131.7 261.8 131.7 261.5 131.7 261.8 131.7" fill="#4e99f4"/></svg>