<?xml version="1.0" encoding="UTF-8"?>
<svg width="30px" height="29px" viewBox="0 0 30 29" version="1.1" xmlns="http://www.w3.org/2000/svg" xmlns:xlink="http://www.w3.org/1999/xlink">
    <defs>
        <path d="M20.755814,8.7 L10.744186,8.7 L10.744186,12.8083333 L16.5069767,12.8083333 C15.9697674,15.4183333 13.7232558,16.9166667 10.744186,16.9166667 C7.22790698,16.9166667 4.39534884,14.1133333 4.39534884,10.6333333 C4.39534884,7.15333333 7.22790698,4.35 10.744186,4.35 C12.2581395,4.35 13.6255814,4.88166667 14.7,5.75166667 L17.8255814,2.65833333 C15.9209302,1.015 13.4790698,0 10.744186,0 C4.78604651,0 0,4.73666667 0,10.6333333 C0,16.53 4.78604651,21.2666667 10.744186,21.2666667 C16.1162791,21.2666667 21,17.4 21,10.6333333 C21,10.005 20.9023256,9.32833333 20.755814,8.7 Z" id="path-1"></path>
        <path d="M20.755814,8.7 L10.744186,8.7 L10.744186,12.8083333 L16.5069767,12.8083333 C15.9697674,15.4183333 13.7232558,16.9166667 10.744186,16.9166667 C7.22790698,16.9166667 4.39534884,14.1133333 4.39534884,10.6333333 C4.39534884,7.15333333 7.22790698,4.35 10.744186,4.35 C12.2581395,4.35 13.6255814,4.88166667 14.7,5.75166667 L17.8255814,2.65833333 C15.9209302,1.015 13.4790698,0 10.744186,0 C4.78604651,0 0,4.73666667 0,10.6333333 C0,16.53 4.78604651,21.2666667 10.744186,21.2666667 C16.1162791,21.2666667 21,17.4 21,10.6333333 C21,10.005 20.9023256,9.32833333 20.755814,8.7 Z" id="path-3"></path>
        <path d="M20.755814,8.7 L10.744186,8.7 L10.744186,12.8083333 L16.5069767,12.8083333 C15.9697674,15.4183333 13.7232558,16.9166667 10.744186,16.9166667 C7.22790698,16.9166667 4.39534884,14.1133333 4.39534884,10.6333333 C4.39534884,7.15333333 7.22790698,4.35 10.744186,4.35 C12.2581395,4.35 13.6255814,4.88166667 14.7,5.75166667 L17.8255814,2.65833333 C15.9209302,1.015 13.4790698,0 10.744186,0 C4.78604651,0 0,4.73666667 0,10.6333333 C0,16.53 4.78604651,21.2666667 10.744186,21.2666667 C16.1162791,21.2666667 21,17.4 21,10.6333333 C21,10.005 20.9023256,9.32833333 20.755814,8.7 Z" id="path-5"></path>
        <path d="M20.755814,8.7 L10.744186,8.7 L10.744186,12.8083333 L16.5069767,12.8083333 C15.9697674,15.4183333 13.7232558,16.9166667 10.744186,16.9166667 C7.22790698,16.9166667 4.39534884,14.1133333 4.39534884,10.6333333 C4.39534884,7.15333333 7.22790698,4.35 10.744186,4.35 C12.2581395,4.35 13.6255814,4.88166667 14.7,5.75166667 L17.8255814,2.65833333 C15.9209302,1.015 13.4790698,0 10.744186,0 C4.78604651,0 0,4.73666667 0,10.6333333 C0,16.53 4.78604651,21.2666667 10.744186,21.2666667 C16.1162791,21.2666667 21,17.4 21,10.6333333 C21,10.005 20.9023256,9.32833333 20.755814,8.7 Z" id="path-7"></path>
    </defs>
    <g id="Page-1" stroke="none" stroke-width="1" fill="none" fill-rule="evenodd">
        <g id="2.1-1366-Sign-In-CP" transform="translate(-695.000000, -636.000000)">
            <g id="sign-up-form" transform="translate(422.000000, 290.000000)">
                <g id="google-badge" transform="translate(268.000000, 341.000000)">
                    <g id="G-logo" transform="translate(5.000000, 5.000000)">
                        <path d="M3,0 L27,0 C28.6568542,-3.04359188e-16 30,1.34314575 30,3 L30,26 C30,27.6568542 28.6568542,29 27,29 L3,29 C1.34314575,29 2.02906125e-16,27.6568542 0,26 L0,3 C-2.02906125e-16,1.34314575 1.34314575,3.04359188e-16 3,0 Z" id="Rectangle-4" fill="#FFFFFF"></path>
                        <g id="Google__G__Logo" stroke-width="1" transform="translate(5.000000, 3.866667)">
                            <g id="Clipped">
                                <mask id="mask-2" fill="white">
                                    <use xlink:href="#path-1"></use>
                                </mask>
                                <g id="a"></g>
                                <polygon id="Path" fill="#FBBC05" fill-rule="nonzero" mask="url(#mask-2)" points="-0.976744186 16.9166667 -0.976744186 4.35 7.3255814 10.6333333"></polygon>
                            </g>
                            <g id="Clipped">
                                <mask id="mask-4" fill="white">
                                    <use xlink:href="#path-3"></use>
                                </mask>
                                <g id="a"></g>
                                <polygon id="Path" fill="#EA4335" fill-rule="nonzero" mask="url(#mask-4)" points="-0.976744186 4.35 7.3255814 10.6333333 10.744186 7.685 22.4651163 5.8 22.4651163 -0.966666667 -0.976744186 -0.966666667"></polygon>
                            </g>
                            <g id="Clipped">
                                <mask id="mask-6" fill="white">
                                    <use xlink:href="#path-5"></use>
                                </mask>
                                <g id="a"></g>
                                <polygon id="Path" fill="#34A853" fill-rule="nonzero" mask="url(#mask-6)" points="-0.976744186 16.9166667 13.6744186 5.8 17.5325581 6.28333333 22.4651163 -0.966666667 22.4651163 22.2333333 -0.976744186 22.2333333"></polygon>
                            </g>
                            <g id="Clipped">
                                <mask id="mask-8" fill="white">
                                    <use xlink:href="#path-7"></use>
                                </mask>
                                <g id="a"></g>
                                <polygon id="Path" fill="#4285F4" fill-rule="nonzero" mask="url(#mask-8)" points="22.4651163 22.2333333 7.3255814 10.6333333 5.37209302 9.18333333 22.4651163 4.35"></polygon>
                            </g>
                        </g>
                    </g>
                </g>
            </g>
        </g>
    </g>
</svg>